<?xml version="1.0" encoding="utf-8"?>
<!-- Generator: Adobe Illustrator 21.0.0, SVG Export Plug-In . SVG Version: 6.00 Build 0)  -->
<svg version="1.1" id="Layer_1" xmlns="http://www.w3.org/2000/svg" xmlns:xlink="http://www.w3.org/1999/xlink" x="0px" y="0px"
	 viewBox="0 0 690 149" style="enable-background:new 0 0 690 149;" xml:space="preserve">
<style type="text/css">
	.st0{fill:url(#Oval-1_1_);}
	.st1{fill:#FFFFFF;fill-opacity:0.7;}
	.st2{fill:#FFFFFF;fill-opacity:0.6;}
	.st3{fill:#FFFFFF;}
	.st4{fill:#2A3E50;}
</style>
<g id="MXM-Logos">
	<g id="Mark-with-Circle-Shape-_x2B_-Logotype-on-light">
		<g id="MXM-LOGO-Copy-_x2B_-musixmatch-Copy" transform="translate(208.000000, 235.000000)">
			<g id="Oval-1-_x2B_-MXM-LOGO-Copy-2">
				<g id="MXM-LOGO" transform="translate(42.352201, 45.784567)">
				</g>
				<g id="Group">
					
						<linearGradient id="Oval-1_1_" gradientUnits="userSpaceOnUse" x1="-113.1227" y1="-63.8318" x2="-113.1227" y2="-64.6143" gradientTransform="matrix(182 0 0 -182 20480 -11850)">
						<stop  offset="0" style="stop-color:#F96632"/>
						<stop  offset="1" style="stop-color:#F11482"/>
					</linearGradient>
					<circle id="Oval-1" class="st0" cx="-108.3" cy="-160.4" r="72.2"/>
					<path id="Imported-Layers" class="st1" d="M-82.5-194.4l-25.8,19.3c-0.1,0.1-0.2,0.2-0.2,0.2l-26.2-19.3
						c-1.4-1.1-3.1-1.6-4.8-1.6c-3.8,0-7.4,2.6-7.4,6.5v14.7l0,43.6c0,3.9,3.6,6.5,7.4,6.5c1.6,0,3.3-0.5,4.8-1.6l26.2-19.5
						c13.1,9.8,26,19.5,26,19.5c1.4,1.1,3.1,1.6,4.8,1.6c3.8,0,7.7-2.6,7.7-6.5v-43.6v-14.9c0-3.9-3.9-6.4-7.7-6.4
						C-79.4-196-81-195.5-82.5-194.4z"/>
					<polygon id="Fill-3-Copy" class="st2" points="-127.7,-160.2 -108.5,-145.6 -89.4,-160.2 -108.5,-174.9 					"/>
					<polyline id="Fill-4-Copy" class="st2" points="-146.9,-174.7 -146.9,-145.8 -127.7,-160.2 -146.9,-174.7 					"/>
					<polyline id="Fill-5-Copy" class="st2" points="-89.4,-160.2 -70,-145.6 -70,-174.9 -89.4,-160.2 					"/>
					<path id="Fill-6-Copy" class="st3" d="M-82.8-194.1l-25.6,19.2l19.1,14.7l19.3-14.7v-14.7C-70-195.1-77.3-198.7-82.8-194.1z"/>
					<path id="Fill-7-Copy" class="st3" d="M-134.7-194.3c-4.8-3.6-12.2-0.6-12.2,5v14.7l19.2,14.4l19.3-14.7L-134.7-194.3z"/>
					<path id="musixmatch" class="st4" d="M17.9-162.8v23.8h9.4v-23.7c0-6.4,3.5-10.7,9.3-10.7c6.5,0,9.1,4.5,9.1,10.5v23.9h9.5
						v-26.2c0-9.6-4.7-17.2-15.5-17.2c-6.5,0-10.6,2.4-14.7,6.9c-2.4-4.2-6.6-6.9-13.1-6.9c-3.4,0-8.6,1.2-12.7,6.7v-5.7h-9.2v42.4
						h9.5v-23.6c0-6.4,3.5-10.8,9.3-10.8C15.4-173.3,17.9-168.8,17.9-162.8L17.9-162.8z M74-157.6v-23.7h-9.5v26
						c0,9.6,5.3,17.2,15.9,17.2c3.3,0,8.9-1.1,12.9-6.6v5.7h9.2v-42.4h-9.5v23.6c0,6.4-3.8,10.7-9.8,10.7
						C76.8-147,74-151.6,74-157.6L74-157.6z M126.7-138.2c10.5,0,15.5-6.7,15.5-13.2c0-6-4.3-11.1-12-12.7l-5.8-1.2
						c-2.4-0.5-4.3-1.9-4.3-4.4c0-2.9,2.8-4.8,5.8-4.8c5,0,7.1,3.2,7.7,5.9l8-2.2c-0.7-4.1-4.5-11.3-15.7-11.3
						c-8.6,0-15,6.2-15,13.3c0,5.5,3.5,10.3,11.2,12.2l5.4,1.3c3.6,0.9,5,2.4,5,4.7c0,2.9-2.1,5-6,5c-4.8,0-7.7-3.1-8.5-6.7
						l-8.1,2.1C110.5-145.8,115.2-138.2,126.7-138.2L126.7-138.2z M148.3-195.1c0-3.4,2.8-6.3,6.2-6.3c3.4,0,6.2,2.8,6.2,6.3
						s-2.8,6.2-6.2,6.2C151.1-188.9,148.3-191.6,148.3-195.1L148.3-195.1z M149.8-139v-42.4h9.5v42.4H149.8z M175.1-139l10.7-14.8
						l10.7,14.8h10.9l-16-21.6l15.5-20.8h-10.7l-10.3,14l-10.2-14h-10.8l15.5,20.9L164.3-139H175.1z M240.2-162.8v23.8h9.4v-23.7
						c0-6.4,3.5-10.7,9.3-10.7c6.5,0,9.1,4.5,9.1,10.5v23.9h9.5v-26.2c0-9.6-4.7-17.2-15.5-17.2c-6.5,0-10.6,2.4-14.7,6.9
						c-2.4-4.2-6.6-6.9-13.1-6.9c-3.4,0-8.6,1.2-12.7,6.7v-5.7h-9.2v42.4h9.5v-23.6c0-6.4,3.5-10.8,9.3-10.8
						C237.7-173.3,240.2-168.8,240.2-162.8L240.2-162.8z M284.4-160.2c0,11.4,8.6,21.9,20.8,21.9c3.4,0,10.6-1.7,14.1-7.1v6.4h9.3
						v-42.4h-9.3v6.2c-3.5-5.2-10.1-7-13.8-7C292.3-182.2,284.4-170.9,284.4-160.2L284.4-160.2z M319.4-160.2
						c0,7.2-5,13.3-12.7,13.3c-7.6,0-12.7-6-12.7-13.3c0-7.4,5-13.4,12.7-13.4C314.3-173.6,319.4-167.6,319.4-160.2L319.4-160.2z
						 M362.9-172.8v-8.5h-10.8v-13.1h-9.4v13.1h-8.2v8.5h8.2v20.7c0,10.3,4.7,13.5,13,13.5c1.2,0,4.2-0.1,6.8-0.9v-8
						c-1.8,0.2-3,0.3-3.8,0.3c-4.7,0-6.5-1.8-6.5-5.5v-20.2H362.9z M388.9-138.2c11.5,0,18.1-7.4,20-13.9l-8.6-2.8
						c-1.2,3.3-3.9,8.1-11.2,8.1c-7.2,0-12.6-5.7-12.6-13.6c0-8,5.6-13.3,12.5-13.3c7,0,10.1,4.6,11.1,7.9l8.6-2.8
						c-1.8-7.2-9.1-13.7-19.6-13.7c-12.6,0-22.2,9.9-22.2,22C366.8-147.8,376.4-138.2,388.9-138.2L388.9-138.2z M444.2-162.7v23.7
						h9.5V-165c0-9.6-5.1-17.2-15.9-17.2c-3.3,0-8.6,1.1-12.7,6.2v-27.6h-9.5v64.6h9.5v-23.6c0-6.4,3.8-10.7,9.8-10.7
						C441.4-173.3,444.2-168.7,444.2-162.7L444.2-162.7z"/>
				</g>
			</g>
		</g>
	</g>
</g>
</svg>
